<?xml version="1.0" standalone="no"?><!DOCTYPE svg PUBLIC "-//W3C//DTD SVG 1.1//EN" "http://www.w3.org/Graphics/SVG/1.1/DTD/svg11.dtd"><svg t="1765537685961" class="icon" viewBox="0 0 1024 1024" version="1.1" xmlns="http://www.w3.org/2000/svg" p-id="3912" xmlns:xlink="http://www.w3.org/1999/xlink" width="200" height="200"><path d="M509.952 145.472c203.968 6.08 365.952 168.96 365.952 366.528 0 201.6-170.368 366.528-378.56 366.528-157.76 0-292.352-93.632-349.12-224h12.608c208.192 0 378.56-164.928 378.56-366.528 0-50.88-10.496-97.728-29.44-142.528z m0-81.472c-27.328 0-52.544 12.16-69.376 34.56-16.832 22.4-18.944 52.992-8.448 77.44 14.72 36.672 23.168 73.28 23.168 112 0 156.8-132.48 285.12-294.4 285.12h-12.672c-27.328 0-52.544 12.16-69.376 34.56-16.832 22.4-18.944 52.992-8.448 77.44C144 852.096 310.144 960 497.28 960 751.872 960 960 758.4 960 512c0-242.304-195.584-439.872-448-448h-2.048z" fill="#86909C" p-id="3913"></path></svg>